# xmcd
#
# Track frame offsets:
#	150
#	14292
#	26335
#	40264
#	51698
#	64170
#	78349
#	89651
#	102970
#	117344
#	132262
#	143887
#	158598
#	172770
#	186291
#	199089
#	211455
#	226279
#
# Disc length: 3192
#
# Revision: 1
# Processed by: cddbd v1.5.1PL0 Copyright (c) Steve Scherf et al.
# Submitted via: CDex 1.51
# Normalized: r0:DSETVAR1,TDELIM( - )
#
DISCID=f70c7612
DTITLE=Various Artist - Birth of the BeBop (Wichita-New York 40-45)
DYEAR=1945
DGENRE=Jazz
TTITLE0=Bill Eckstine and his orchestra - Blowing the blues away
TTITLE1=Clyde Hart and his orchestra - Little Benny
TTITLE2=Coleman Hawkins Quartet - Drifting on a reed
TTITLE3=Sarah Vaughan and her all stars - Interlude
TTITLE4=Clyde Hart's all stars - Sorta Kinda
TTITLE5=Dizzy Gillespie Sextet - Be-Bop
TTITLE6=Oscar Pettiford and his 18 stars - Something for you
TTITLE7=Earl Hines and his orchestra - At the El Grotto
TTITLE8=Boyd Raeburn and his orchestra - A night in Tunisia
TTITLE9=Woody Herman and his orchestra - Apple Honey
TTITLE10=Bill Eckstine and his orchestra - Opus X
TTITLE11=Dizzy Gillespie and his all star quintet - Salt peanuts
TTITLE12=Dizzy Gillespie and his all star quintet - Hot house
TTITLE13=Howard McGhee - Mad hype
TTITLE14=Frank Socolow quintet - September in the rain
TTITLE15=Dexter Gordon - Dexter minor mad
TTITLE16=Charlie Parker's Be Boppers - Now's the time
TTITLE17=Charlie Parker's Be Boppers - Koko
EXTD=YEAR: 1945
EXTT0=
EXTT1=
EXTT2=
EXTT3=
EXTT4=
EXTT5=
EXTT6=
EXTT7=
EXTT8=
EXTT9=
EXTT10=
EXTT11=
EXTT12=
EXTT13=
EXTT14=
EXTT15=
EXTT16=
EXTT17=
PLAYORDER=
